<svg width="48" height="48" viewBox="0 0 48 48" fill="none" xmlns="http://www.w3.org/2000/svg">
<path d="M24 42C33.9411 42 42 33.9411 42 24C42 14.0589 33.9411 6 24 6C14.0589 6 6 14.0589 6 24C6 33.9411 14.0589 42 24 42Z" fill="white" stroke="black" stroke-width="3"/>
<path d="M24 4.5C34.7696 4.5 43.5 13.2304 43.5 24C43.5 34.7696 34.7696 43.5 24 43.5C13.2304 43.5 4.5 34.7696 4.5 24C4.5 13.2304 13.2304 4.5 24 4.5ZM24 7.5C14.8873 7.5 7.5 14.8873 7.5 24C7.5 33.1127 14.8873 40.5 24 40.5C33.1127 40.5 40.5 33.1127 40.5 24C40.5 14.8873 33.1127 7.5 24 7.5ZM32.4414 14.5908C33.0459 14.3615 33.6385 14.954 33.4092 15.5586L28.6201 28.1846C28.544 28.3852 28.3852 28.544 28.1846 28.6201L15.5586 33.4092C14.9541 33.6385 14.3616 33.0459 14.5908 32.4414L19.3809 19.8154C19.457 19.6151 19.6151 19.457 19.8154 19.3809L32.4414 14.5908ZM24 21C22.3432 21.0001 21.0001 22.3432 21 24C21 25.6568 22.3432 26.9999 24 27C25.6568 27 27 25.6568 27 24C26.9999 22.3432 25.6568 21 24 21Z" fill="#0B5ED7"/>
</svg>
