<svg width="64" height="64" viewBox="0 0 64 64" fill="none" xmlns="http://www.w3.org/2000/svg">
<path d="M32 50C41.9411 50 50 41.9411 50 32C50 22.0589 41.9411 14 32 14C22.0589 14 14 22.0589 14 32C14 41.9411 22.0589 50 32 50Z" fill="white" stroke="black" stroke-width="3"/>
<path d="M32 12.5C42.7696 12.5 51.5 21.2304 51.5 32C51.5 42.7696 42.7696 51.5 32 51.5C21.2304 51.5 12.5 42.7696 12.5 32C12.5 21.2304 21.2304 12.5 32 12.5ZM32 15.5C22.8873 15.5 15.5 22.8873 15.5 32C15.5 41.1127 22.8873 48.5 32 48.5C41.1127 48.5 48.5 41.1127 48.5 32C48.5 22.8873 41.1127 15.5 32 15.5ZM40.4414 22.5908C41.0459 22.3615 41.6385 22.954 41.4092 23.5586L36.6201 36.1846C36.544 36.3852 36.3852 36.544 36.1846 36.6201L23.5586 41.4092C22.9541 41.6385 22.3616 41.0459 22.5908 40.4414L27.3809 27.8154C27.457 27.6151 27.6151 27.457 27.8154 27.3809L40.4414 22.5908ZM32 29C30.3432 29.0001 29.0001 30.3432 29 32C29 33.6568 30.3432 34.9999 32 35C33.6568 35 35 33.6568 35 32C34.9999 30.3432 33.6568 29 32 29Z" fill="#0B5ED7"/>
</svg>
