<svg width="64" height="64" viewBox="0 0 64 64" fill="none" xmlns="http://www.w3.org/2000/svg">
<path d="M32 50C41.9411 50 50 41.9411 50 32C50 22.0589 41.9411 14 32 14C22.0589 14 14 22.0589 14 32C14 41.9411 22.0589 50 32 50Z" fill="white" stroke="black" stroke-width="3"/>
<path d="M32 12.5C42.7696 12.5 51.5 21.2304 51.5 32C51.5 42.7696 42.7696 51.5 32 51.5C21.2304 51.5 12.5 42.7696 12.5 32C12.5 21.2304 21.2304 12.5 32 12.5ZM32 15.5C22.8873 15.5 15.5 22.8873 15.5 32C15.5 41.1127 22.8873 48.5 32 48.5C41.1127 48.5 48.5 41.1127 48.5 32C48.5 22.8873 41.1127 15.5 32 15.5ZM40.4424 22.5918C41.0468 22.3628 41.6384 22.9542 41.4092 23.5586L36.6201 36.1846C36.544 36.3851 36.3851 36.544 36.1846 36.6201L23.5586 41.4092C22.9542 41.6382 22.3629 41.0467 22.5918 40.4424L27.3809 27.8164C27.457 27.6157 27.6157 27.457 27.8164 27.3809L40.4424 22.5918ZM32.001 29C30.3443 29 29.0012 30.3433 29.001 32C29.0012 33.6567 30.3442 35 32.001 35C33.6573 34.9995 35.0008 33.6564 35.001 32C35.0008 30.3436 33.6573 29.0005 32.001 29Z" fill="#0B5ED7"/>
</svg>
