<svg width="64" height="64" viewBox="0 0 64 64" fill="none" xmlns="http://www.w3.org/2000/svg">
<path d="M49.0855 13H14.805C13.275 13 12 14.275 12 15.805V50.043C12 51.573 13.275 52.848 14.805 52.848H49.0855C50.6155 52.848 51.9075 51.573 51.9075 50.043V15.805C51.9075 14.275 50.6155 13 49.0855 13Z" fill="white"/>
<path d="M31.9495 41.866C27.079 41.866 22.999 38.041 22.999 32.9325C22.999 27.824 27.079 23.982 31.9495 23.982C36.82 23.982 40.9 28.079 40.9 32.9325C40.9 38.0325 36.803 41.866 31.9495 41.866ZM49.0855 13H14.805C13.275 13 12 14.275 12 15.805V50.043C12 51.573 13.275 52.848 14.805 52.848H49.0855C50.6155 52.848 51.9075 51.573 51.9075 50.043V15.805C51.9075 14.275 50.6155 13 49.0855 13Z" fill="#0B5ED7"/>
<path d="M22.999 39.5625C26.824 41.0925 29.901 41.3645 31.9495 41.3645C33.998 41.3645 37.0495 41.0925 40.9 39.5625L41.155 38.534H22.999V39.5625ZM31.9495 42.6395C29.901 42.6395 26.5775 42.3845 22.2255 40.591C21.9705 40.591 21.9705 40.336 21.9705 40.0895L21.452 38.041C21.452 37.786 21.452 37.5225 21.707 37.5225C21.707 37.2675 21.979 37.2675 22.2255 37.2675H41.9285C42.0928 37.2675 42.26 37.3525 42.43 37.5225V38.041L42.175 40.0895C42.175 40.3445 41.9285 40.591 41.6565 40.591C37.5765 42.393 34.253 42.6395 31.9495 42.6395Z" fill="#BCCFEC"/>
<path d="M37.5765 51.318H26.5775C26.059 51.318 25.804 50.8165 25.804 50.5445V41.3645H27.079V49.7965H36.803V41.3645H38.078V50.5445C38.078 50.8165 37.823 51.318 37.5765 51.318Z" fill="#BCCFEC"/>
<path d="M36.803 56.418H27.079C26.824 56.418 26.5775 56.163 26.5775 55.9165V50.043H27.8525V55.143H36.3015V50.043H37.5765V55.9165C37.5765 56.1715 37.3045 56.418 36.803 56.418Z" fill="#BCCFEC"/>
</svg>
