<svg width="40" height="47" viewBox="0 0 40 47" fill="none" xmlns="http://www.w3.org/2000/svg">
<path d="M37.0855 2.70898H2.805C1.275 2.70898 0 3.98398 0 5.51398V39.752C0 41.282 1.275 42.557 2.805 42.557H37.0855C38.6155 42.557 39.9075 41.282 39.9075 39.752V5.51398C39.9075 3.98398 38.6155 2.70898 37.0855 2.70898Z" fill="white"/>
<path d="M19.9495 31.575C15.079 31.575 10.999 27.75 10.999 22.6415C10.999 17.533 15.079 13.691 19.9495 13.691C24.82 13.691 28.9 17.788 28.9 22.6415C28.9 27.7415 24.803 31.575 19.9495 31.575ZM37.0855 2.70898H2.805C1.275 2.70898 0 3.98398 0 5.51398V39.752C0 41.282 1.275 42.557 2.805 42.557H37.0855C38.6155 42.557 39.9075 41.282 39.9075 39.752V5.51398C39.9075 3.98398 38.6155 2.70898 37.0855 2.70898Z" fill="#0B5ED7"/>
<path d="M10.9991 29.2716C14.8241 30.8016 17.9011 31.0736 19.9496 31.0736C21.9981 31.0736 25.0496 30.8016 28.9001 29.2716L29.1551 28.2431H10.9991V29.2716ZM19.9496 32.3486C17.9011 32.3486 14.5776 32.0936 10.2256 30.3001C9.97065 30.3001 9.97065 30.0451 9.97065 29.7986L9.45215 27.7501C9.45215 27.4951 9.45215 27.2316 9.70715 27.2316C9.70715 26.9766 9.97915 26.9766 10.2256 26.9766H29.9286C30.093 26.9766 30.2601 27.0616 30.4301 27.2316V27.7501L30.1751 29.7986C30.1751 30.0536 29.9286 30.3001 29.6566 30.3001C25.5766 32.1021 22.2531 32.3486 19.9496 32.3486Z" fill="#BCCFEC"/>
<path d="M25.5767 41.0267H14.5777C14.0592 41.0267 13.8042 40.5252 13.8042 40.2532V31.0732H15.0792V39.5052H24.8032V31.0732H26.0782V40.2532C26.0782 40.5252 25.8232 41.0267 25.5767 41.0267Z" fill="#BCCFEC"/>
<path d="M24.8031 46.127H15.0791C14.8241 46.127 14.5776 45.872 14.5776 45.6255V39.752H15.8526V44.852H24.3016V39.752H25.5766V45.6255C25.5766 45.8805 25.3046 46.127 24.8031 46.127Z" fill="#BCCFEC"/>
</svg>
