<svg width="64" height="64" viewBox="0 0 64 64" fill="none" xmlns="http://www.w3.org/2000/svg">
<path d="M49.0855 13H14.805C13.275 13 12 14.275 12 15.805V50.043C12 51.573 13.275 52.848 14.805 52.848H49.0855C50.6155 52.848 51.9075 51.573 51.9075 50.043V15.805C51.9075 14.275 50.6155 13 49.0855 13Z" fill="white"/>
<path d="M31.9495 41.866C27.079 41.866 22.999 38.041 22.999 32.9325C22.999 27.824 27.079 23.982 31.9495 23.982C36.82 23.982 40.9 28.079 40.9 32.9325C40.9 38.0325 36.803 41.866 31.9495 41.866ZM49.0855 13H14.805C13.275 13 12 14.275 12 15.805V50.043C12 51.573 13.275 52.848 14.805 52.848H49.0855C50.6155 52.848 51.9075 51.573 51.9075 50.043V15.805C51.9075 14.275 50.6155 13 49.0855 13Z" fill="#0B5ED7"/>
<path d="M22.9991 39.5626C26.8241 41.0926 29.9011 41.3646 31.9496 41.3646C33.9981 41.3646 37.0496 41.0926 40.9001 39.5626L41.1551 38.5341H22.9991V39.5626ZM31.9496 42.6396C29.9011 42.6396 26.5776 42.3846 22.2256 40.5911C21.9706 40.5911 21.9706 40.3361 21.9706 40.0896L21.4521 38.0411C21.4521 37.7861 21.4521 37.5226 21.7071 37.5226C21.7071 37.2676 21.9791 37.2676 22.2256 37.2676H41.9286C42.093 37.2676 42.2601 37.3526 42.4301 37.5226V38.0411L42.1751 40.0896C42.1751 40.3446 41.9286 40.5911 41.6566 40.5911C37.5766 42.3931 34.2531 42.6396 31.9496 42.6396Z" fill="#BCCFEC"/>
<path d="M37.5767 51.3178H26.5777C26.0592 51.3178 25.8042 50.8163 25.8042 50.5443V41.3643H27.0792V49.7963H36.8032V41.3643H38.0782V50.5443C38.0782 50.8163 37.8232 51.3178 37.5767 51.3178Z" fill="#BCCFEC"/>
<path d="M36.8031 56.418H27.0791C26.8241 56.418 26.5776 56.163 26.5776 55.9165V50.043H27.8526V55.143H36.3016V50.043H37.5766V55.9165C37.5766 56.1715 37.3046 56.418 36.8031 56.418Z" fill="#BCCFEC"/>
</svg>
