<svg width="64" height="64" viewBox="0 0 64 64" fill="none" xmlns="http://www.w3.org/2000/svg">
<path d="M31.7 6.45999C31.11 6.45999 30.5 6.74999 30.5 7.36999V22.38H22.35C22.03 22.38 21.44 22.68 21.44 23.29V25.7C21.44 26 22.03 26.59 22.35 26.59H32.32C32.91 26.59 33.23 26 33.23 25.7V19.67H36.55C37.14 19.67 37.46 19.08 37.46 18.78V16.37C41.37 19.37 44.1 24.19 44.1 29.58C44.1 35.61 41.07 40.7 36.55 43.7H32.91V42.52C32.91 41.91 32.61 41.61 32.02 41.61H22.35C21.73 41.61 21.44 41.91 21.44 42.52V43.7H16.29C15.67 43.7 15.38 44.02 15.08 44.61V49.43C15.08 49.73 15.38 50.02 15.67 50.32C19.02 52.44 22.93 53.32 27.16 53.32C40.45 53.32 51.03 42.81 51.03 29.58C51.04 18.17 42.57 8.54999 31.7 6.45999Z" fill="#0B5ED7"/>
<path d="M33.81 47.63H20.52C20.22 47.63 19.61 47.33 19.61 46.74V39.21H21.43V46.12H32.9V39.21H34.43V46.74C34.43 47.33 34.13 47.63 33.81 47.63Z" fill="#BCCFEC"/>
<path d="M32.9 57.54H21.43C20.81 57.54 20.52 57.24 20.52 56.65V46.41H22.02V56.03H32.3V46.41H33.8V56.65C33.8 57.24 33.5 57.54 32.89 57.54H32.9Z" fill="#BCCFEC"/>
<path d="M26.87 41.33C24.14 41.33 19.61 41.03 13.88 38.92C13.88 38.62 13.56 38.62 13.56 38.33L12.97 33.51C12.97 33.21 12.97 32.92 13.27 32.92C13.27 32.62 13.57 32.62 13.89 32.62H40.17C40.17 32.62 40.47 32.62 40.47 32.92C40.79 32.92 40.79 33.22 40.79 33.51L40.47 38.33L39.88 38.92C34.44 41.04 29.91 41.33 26.89 41.33H26.87Z" fill="white"/>
<path d="M15.09 37.71C20.23 39.51 24.15 39.83 26.88 39.83C29.61 39.83 33.82 39.51 38.96 37.71L39.26 34.12H14.79L15.09 37.71ZM26.87 41.33C24.14 41.33 19.61 41.03 13.88 38.92C13.88 38.62 13.56 38.62 13.56 38.33L12.97 33.51C12.97 33.21 12.97 32.92 13.27 32.92C13.27 32.62 13.57 32.62 13.89 32.62H40.17C40.17 32.62 40.47 32.62 40.47 32.92C40.79 32.92 40.79 33.22 40.79 33.51L40.47 38.33L39.88 38.92C34.44 41.04 29.91 41.33 26.89 41.33H26.87Z" fill="#BCCFEC"/>
</svg>
