<svg width="64" height="64" viewBox="0 0 64 64" fill="none" xmlns="http://www.w3.org/2000/svg">
<path d="M31.6996 6.45996C31.1096 6.45996 30.4996 6.74996 30.4996 7.36996V22.38H22.3496C22.0296 22.38 21.4396 22.68 21.4396 23.29V25.7C21.4396 26 22.0296 26.59 22.3496 26.59H32.3196C32.9096 26.59 33.2296 26 33.2296 25.7V19.67H36.5496C37.1396 19.67 37.4596 19.08 37.4596 18.78V16.37C41.3696 19.37 44.0996 24.19 44.0996 29.58C44.0996 35.61 41.0696 40.7 36.5496 43.7H32.9096V42.52C32.9096 41.91 32.6096 41.61 32.0196 41.61H22.3496C21.7296 41.61 21.4396 41.91 21.4396 42.52V43.7H16.2896C15.6696 43.7 15.3796 44.02 15.0796 44.61V49.43C15.0796 49.73 15.3796 50.02 15.6696 50.32C19.0196 52.44 22.9296 53.32 27.1596 53.32C40.4496 53.32 51.0296 42.81 51.0296 29.58C51.0396 18.17 42.5696 8.54996 31.6996 6.45996Z" fill="#0B5ED7"/>
<path d="M33.8099 47.63H20.5199C20.2199 47.63 19.6099 47.33 19.6099 46.74V39.21H21.4299V46.12H32.8999V39.21H34.4299V46.74C34.4299 47.33 34.1299 47.63 33.8099 47.63Z" fill="#BCCFEC"/>
<path d="M32.8995 57.5402H21.4295C20.8095 57.5402 20.5195 57.2402 20.5195 56.6502V46.4102H22.0195V56.0302H32.2995V46.4102H33.7995V56.6502C33.7995 57.2402 33.4995 57.5402 32.8895 57.5402H32.8995Z" fill="#BCCFEC"/>
<path d="M26.8697 41.3301C24.1397 41.3301 19.6097 41.0301 13.8797 38.9201C13.8797 38.6201 13.5597 38.6201 13.5597 38.3301L12.9697 33.5101C12.9697 33.2101 12.9697 32.9201 13.2697 32.9201C13.2697 32.6201 13.5697 32.6201 13.8897 32.6201H40.1697C40.1697 32.6201 40.4697 32.6201 40.4697 32.9201C40.7897 32.9201 40.7897 33.2201 40.7897 33.5101L40.4697 38.3301L39.8797 38.9201C34.4397 41.0401 29.9097 41.3301 26.8897 41.3301H26.8697Z" fill="white"/>
<path d="M15.0897 37.7101C20.2297 39.5101 24.1497 39.8301 26.8797 39.8301C29.6097 39.8301 33.8197 39.5101 38.9597 37.7101L39.2597 34.1201H14.7897L15.0897 37.7101ZM26.8697 41.3301C24.1397 41.3301 19.6097 41.0301 13.8797 38.9201C13.8797 38.6201 13.5597 38.6201 13.5597 38.3301L12.9697 33.5101C12.9697 33.2101 12.9697 32.9201 13.2697 32.9201C13.2697 32.6201 13.5697 32.6201 13.8897 32.6201H40.1697C40.1697 32.6201 40.4697 32.6201 40.4697 32.9201C40.7897 32.9201 40.7897 33.2201 40.7897 33.5101L40.4697 38.3301L39.8797 38.9201C34.4397 41.0401 29.9097 41.3301 26.8897 41.3301H26.8697Z" fill="#BCCFEC"/>
</svg>
