<svg width="39" height="52" viewBox="0 0 39 52" fill="none" xmlns="http://www.w3.org/2000/svg">
<path d="M18.7299 0C18.1399 0 17.5299 0.29 17.5299 0.91V15.92H9.37986C9.05986 15.92 8.46986 16.22 8.46986 16.83V19.24C8.46986 19.54 9.05986 20.13 9.37986 20.13H19.3499C19.9399 20.13 20.2599 19.54 20.2599 19.24V13.21H23.5799C24.1699 13.21 24.4899 12.62 24.4899 12.32V9.91C28.3999 12.91 31.1299 17.73 31.1299 23.12C31.1299 29.15 28.0999 34.24 23.5799 37.24H19.9399V36.06C19.9399 35.45 19.6399 35.15 19.0499 35.15H9.37986C8.75986 35.15 8.46986 35.45 8.46986 36.06V37.24H3.31986C2.69986 37.24 2.40986 37.56 2.10986 38.15V42.97C2.10986 43.27 2.40986 43.56 2.69986 43.86C6.04986 45.98 9.95986 46.86 14.1899 46.86C27.4799 46.86 38.0599 36.35 38.0599 23.12C38.0699 11.71 29.5999 2.09 18.7299 0Z" fill="#0B5ED7"/>
<path d="M20.8401 41.17H7.55014C7.25014 41.17 6.64014 40.87 6.64014 40.28V32.75H8.46014V39.66H19.9301V32.75H21.4601V40.28C21.4601 40.87 21.1601 41.17 20.8401 41.17Z" fill="#BCCFEC"/>
<path d="M19.9298 51.0802H8.4598C7.8398 51.0802 7.5498 50.7802 7.5498 50.1902V39.9502H9.0498V49.5702H19.3298V39.9502H20.8298V50.1902C20.8298 50.7802 20.5298 51.0802 19.9198 51.0802H19.9298Z" fill="#BCCFEC"/>
<path d="M13.9 34.8702C11.17 34.8702 6.64 34.5702 0.91 32.4602C0.91 32.1602 0.59 32.1602 0.59 31.8702L0 27.0502C0 26.7502 0 26.4602 0.3 26.4602C0.3 26.1602 0.6 26.1602 0.92 26.1602H27.2C27.2 26.1602 27.5 26.1602 27.5 26.4602C27.82 26.4602 27.82 26.7602 27.82 27.0502L27.5 31.8702L26.91 32.4602C21.47 34.5802 16.94 34.8702 13.92 34.8702H13.9Z" fill="white"/>
<path d="M2.12 31.2502C7.26 33.0502 11.18 33.3702 13.91 33.3702C16.64 33.3702 20.85 33.0502 25.99 31.2502L26.29 27.6602H1.82L2.12 31.2502ZM13.9 34.8702C11.17 34.8702 6.64 34.5702 0.91 32.4602C0.91 32.1602 0.59 32.1602 0.59 31.8702L0 27.0502C0 26.7502 0 26.4602 0.3 26.4602C0.3 26.1602 0.6 26.1602 0.92 26.1602H27.2C27.2 26.1602 27.5 26.1602 27.5 26.4602C27.82 26.4602 27.82 26.7602 27.82 27.0502L27.5 31.8702L26.91 32.4602C21.47 34.5802 16.94 34.8702 13.92 34.8702H13.9Z" fill="#BCCFEC"/>
</svg>
