<svg width="64" height="64" viewBox="0 0 64 64" fill="none" xmlns="http://www.w3.org/2000/svg">
<path d="M32.14 6.45999C19.2 6.45999 8.66998 16.97 8.66998 29.91C8.66998 34.71 10.17 39.21 12.88 43.12L13.5 51.83C13.5 52.45 14.09 53.04 15 53.04H48.71C49.62 53.04 50.21 52.45 50.21 51.83L51.12 43.41C53.83 39.5 55.33 35 55.33 29.9C55.32 16.97 44.79 6.45999 32.14 6.45999Z" fill="white"/>
<path d="M32.14 40.42C26.14 40.42 21.61 35.62 21.61 29.91C21.61 23.88 26.14 19.38 32.14 19.38C38.14 19.38 42.38 23.88 42.38 29.91C42.38 35.62 37.88 40.42 32.14 40.42ZM32.14 6.45999C19.2 6.45999 8.66998 16.97 8.66998 29.91C8.66998 34.71 10.17 39.21 12.88 43.12L13.5 51.83C13.5 52.45 14.09 53.04 15 53.04H48.71C49.62 53.04 50.21 52.45 50.21 51.83L51.12 43.41C53.83 39.5 55.33 35 55.33 29.9C55.32 16.97 44.79 6.45999 32.14 6.45999Z" fill="#0B5ED7"/>
<path d="M21.61 37.41C26.14 39.21 29.73 39.21 32.14 39.21C34.26 39.21 37.87 39.21 42.38 37.41L42.68 36.21H21.32L21.62 37.41H21.61ZM32.14 41.03C29.43 41.03 25.52 40.71 20.7 38.62C20.4 38.62 20.11 38.32 20.11 38.01L19.81 35.62V35.01C20.11 34.71 20.4 34.71 20.4 34.71H43.58C43.78 34.71 43.9867 34.81 44.2 35.01C44.2 35.01 44.49 35.31 44.2 35.62L43.88 38.01C43.88 38.33 43.58 38.62 43.29 38.62C38.47 40.71 34.55 41.03 32.14 41.03Z" fill="#C5DAFB"/>
<path d="M38.47 47.63H25.53C24.94 47.63 24.62 47.33 24.62 47.04V39.51H26.14V46.13H37.88V39.51H39.38V47.04C39.38 47.34 39.08 47.63 38.47 47.63Z" fill="#C5DAFB"/>
<path d="M37.88 57.54H26.14C25.82 57.54 25.53 57.24 25.53 56.65V46.41H27.03V56.03H36.97V46.41H38.47V56.65C38.47 57.24 38.17 57.54 37.88 57.54Z" fill="#C5DAFB"/>
</svg>
