<svg width="47" height="52" viewBox="0 0 47 52" fill="none" xmlns="http://www.w3.org/2000/svg">
<path d="M23.47 0C10.53 0 0 10.51 0 23.45C0 28.25 1.5 32.75 4.21 36.66L4.83 45.37C4.83 45.99 5.42 46.58 6.33 46.58H40.04C40.95 46.58 41.54 45.99 41.54 45.37L42.45 36.95C45.16 33.04 46.66 28.54 46.66 23.44C46.65 10.51 36.12 0 23.47 0Z" fill="white"/>
<path d="M23.47 33.96C17.47 33.96 12.94 29.16 12.94 23.45C12.94 17.42 17.47 12.92 23.47 12.92C29.47 12.92 33.71 17.42 33.71 23.45C33.71 29.16 29.21 33.96 23.47 33.96ZM23.47 0C10.53 0 0 10.51 0 23.45C0 28.25 1.5 32.75 4.21 36.66L4.83 45.37C4.83 45.99 5.42 46.58 6.33 46.58H40.04C40.95 46.58 41.54 45.99 41.54 45.37L42.45 36.95C45.16 33.04 46.66 28.54 46.66 23.44C46.65 10.51 36.12 0 23.47 0Z" fill="#0B5ED7"/>
<path d="M12.9401 30.95C17.4701 32.75 21.0601 32.75 23.4701 32.75C25.5901 32.75 29.2001 32.75 33.7101 30.95L34.0101 29.75H12.6501L12.9501 30.95H12.9401ZM23.4701 34.57C20.7601 34.57 16.8501 34.25 12.0301 32.16C11.7301 32.16 11.4401 31.86 11.4401 31.55L11.1401 29.16V28.55C11.4401 28.25 11.7301 28.25 11.7301 28.25H34.9101C35.1101 28.25 35.3168 28.35 35.5301 28.55C35.5301 28.55 35.8201 28.85 35.5301 29.16L35.2101 31.55C35.2101 31.87 34.9101 32.16 34.6201 32.16C29.8001 34.25 25.8801 34.57 23.4701 34.57Z" fill="#C5DAFB"/>
<path d="M29.8002 41.1698H16.8602C16.2702 41.1698 15.9502 40.8698 15.9502 40.5798V33.0498H17.4702V39.6698H29.2102V33.0498H30.7102V40.5798C30.7102 40.8798 30.4102 41.1698 29.8002 41.1698Z" fill="#C5DAFB"/>
<path d="M29.2099 51.0802H17.4699C17.1499 51.0802 16.8599 50.7802 16.8599 50.1902V39.9502H18.3599V49.5702H28.2999V39.9502H29.7999V50.1902C29.7999 50.7802 29.4999 51.0802 29.2099 51.0802Z" fill="#C5DAFB"/>
</svg>
