<svg width="192" height="192" viewBox="0 0 192 192" fill="none" xmlns="http://www.w3.org/2000/svg">
<circle cx="96" cy="96.125" r="82" fill="#00438A" fill-opacity="0.06"/>
<path d="M61.0458 135.286C81.0583 131.899 78.234 116.531 78.234 113H112.869C112.869 116.531 110.942 131.899 130.954 135.286C143.408 137.514 153.405 145.64 157.505 155.297C158.5 157.639 156.602 160 154.057 160H37.9428C35.3979 160 33.4998 157.639 34.4945 155.297C38.5951 145.64 48.5924 137.514 61.0458 135.286Z" fill="#0072DB"/>
<path d="M112.732 114.199C112.5 124.499 117 128.999 120 130.999L78.0137 120.989C78.0137 120.989 78.5305 117.541 78.2013 113.033L112.732 114.199Z" fill="#0052A3"/>
<path d="M104 118H114.4C125.667 118 130 110 130 102V100M134 69V67C134 47.1177 116.987 31 96 31C75.0132 31 58 47.1177 58 67V69" stroke="#0052A3" stroke-width="8"/>
<path d="M126.118 67.0967L135.052 68.1852C139.438 68.7196 142.56 72.7083 142.026 77.0941L139.849 94.962C139.315 99.3478 135.326 102.47 130.94 101.936L122.006 100.847L126.118 67.0967Z" fill="#0072DB"/>
<path d="M65.8812 67.0967L56.9473 68.1852C52.5614 68.7196 49.4392 72.7083 49.9736 77.0941L52.1507 94.962C52.6851 99.3478 56.6737 102.47 61.0596 101.936L69.9935 100.847L65.8812 67.0967Z" fill="#0072DB"/>
<path d="M95.994 40C83.9609 40 65.0006 46.151 65.0006 66.0645C65.0006 83.4117 64.6607 103.846 80.4912 114.936C92.8655 121.688 99.2032 121.688 111.497 114.936C127.327 103.846 126.999 83.4117 126.999 66.0645C126.999 46.151 108.027 40 95.994 40Z" fill="#2E9DFF"/>
<rect x="95" y="111" width="22" height="14" rx="7" fill="#D1ECFF"/>
</svg>
