<svg width="71" height="13" viewBox="0 0 71 13" fill="none" xmlns="http://www.w3.org/2000/svg">
<path d="M23.6927 0.262531H19.9403V5.14817H16.0342V0.262531H12.2818V12.5567H16.0342V7.72226H19.9403V12.5567H23.6927V0.262531ZM36.7493 10.085V0.262531H32.9969V12.5567H39.7782L40.3417 10.085H36.7429H36.7493ZM30.2178 0.262531H26.4654V12.5567H30.2178V0.262531ZM45.4324 0.262531H41.68V12.5567H45.4324V0.262531ZM63.9319 3.4001C63.9319 2.73417 64.5979 2.42041 65.6801 2.42041C66.8647 2.42041 68.1454 2.67654 69.0226 3.03512L68.7153 0.358579C67.7356 0.153677 66.8647 0 65.2702 0C62.235 0 60.1795 1.1974 60.1795 3.70105C60.1795 8.02321 66.0386 7.14597 66.0386 9.15018C66.0386 9.91856 65.4751 10.3348 64.0856 10.3348C62.8497 10.3348 60.9479 9.92496 59.8209 9.35508L60.2307 12.1853C61.3641 12.5951 62.901 12.8 64.1368 12.8C67.2745 12.8 69.8423 11.7691 69.8423 8.68274C69.8423 4.56548 63.9319 5.34027 63.9319 3.38729V3.4001ZM53.347 9.62401C56.8433 9.62401 59.0525 7.82471 59.0525 4.68714C59.0525 1.24222 56.6896 0.0064032 52.8348 0.0064032C51.3428 0.0064032 49.5434 0.108854 48.2627 0.262531V12.5567H52.0151V9.62401H53.3534H53.347ZM55.3513 4.73837C55.3513 6.33277 54.5829 7.41491 52.6298 7.41491H52.0151V2.33077C52.2328 2.31796 52.4377 2.31796 52.6298 2.31796C54.4804 2.31796 55.3513 3.1952 55.3513 4.73197V4.73837ZM5.09073 9.62401C8.58701 9.62401 10.7962 7.82471 10.7962 4.68714C10.7898 1.24222 8.42692 0.0064032 4.57205 0.0064032C3.08646 0.0064032 1.28709 0.108854 0 0.262531V12.5567H3.75241V9.62401H5.09073ZM7.09501 4.73837C7.09501 6.33277 6.3266 7.41491 4.37355 7.41491H3.75882V2.33077C3.97653 2.31796 4.18144 2.31796 4.37355 2.31796C6.22414 2.31796 7.09501 3.1952 7.09501 4.73197V4.73837Z" fill="white"/>
</svg>
