<svg width="64" height="64" viewBox="0 0 64 64" fill="none" xmlns="http://www.w3.org/2000/svg">
<rect width="64" height="64" rx="32" fill="#0B5ED7"/>
<path d="M23.2174 27.3158H20.3534V31.0446H17.3722V27.3158H14.5083V36.6989H17.3722V33.0092H20.3534V36.6989H23.2174V27.3158ZM33.1824 34.8125V27.3158H30.3185V36.6989H35.4941L35.9242 34.8125H33.1776H33.1824ZM28.1975 27.3158H25.3335V36.6989H28.1975V27.3158ZM39.8095 27.3158H36.9456V36.6989H39.8095V27.3158ZM53.9288 29.7104C53.9288 29.2022 54.437 28.9627 55.263 28.9627C56.1671 28.9627 57.1446 29.1582 57.8141 29.4319L57.5795 27.3891C56.8318 27.2327 56.1671 27.1154 54.9502 27.1154C52.6337 27.1154 51.0648 28.0293 51.0648 29.9401C51.0648 33.2389 55.5367 32.5693 55.5367 34.099C55.5367 34.6854 55.1066 35.0031 54.0461 35.0031C53.1028 35.0031 51.6513 34.6903 50.7912 34.2554L51.104 36.4155C51.969 36.7282 53.1419 36.8846 54.0852 36.8846C56.4799 36.8846 58.4397 36.0978 58.4397 33.7422C58.4397 30.5999 53.9288 31.1912 53.9288 29.7006V29.7104ZM45.8502 34.4606C48.5186 34.4606 50.2047 33.0874 50.2047 30.6927C50.2047 28.0635 48.4013 27.1203 45.4592 27.1203C44.3205 27.1203 42.9471 27.1985 41.9697 27.3158V36.6989H44.8336V34.4606H45.8551H45.8502ZM47.3799 30.7318C47.3799 31.9487 46.7934 32.7746 45.3028 32.7746H44.8336V28.8943C44.9998 28.8845 45.1562 28.8845 45.3028 28.8845C46.7152 28.8845 47.3799 29.554 47.3799 30.7269V30.7318ZM9.01994 34.4606C11.6884 34.4606 13.3745 33.0874 13.3745 30.6927C13.3696 28.0635 11.5662 27.1203 8.62407 27.1203C7.49023 27.1203 6.11692 27.1985 5.13458 27.3158V36.6989H7.9985V34.4606H9.01994ZM10.5496 30.7318C10.5496 31.9487 9.96317 32.7746 8.47257 32.7746H8.00339V28.8943C8.16956 28.8845 8.32595 28.8845 8.47257 28.8845C9.88498 28.8845 10.5496 29.554 10.5496 30.7269V30.7318Z" fill="white"/>
</svg>
