<svg width="64" height="64" viewBox="0 0 64 64" fill="none" xmlns="http://www.w3.org/2000/svg">
<g clip-path="url(#clip0_34_517)">
<path d="M22.395 53.04H23.335C23.655 53.04 23.655 53.34 23.655 53.66V56.96C23.655 57.26 23.655 57.55 23.335 57.55H22.395C22.095 57.55 22.095 57.25 22.095 56.96V53.66C22.095 53.34 22.095 53.04 22.395 53.04Z" fill="#0B5ED7"/>
<path d="M40.645 53.04H41.585C41.585 53.04 41.905 53.34 41.905 53.66V56.96C41.905 57.26 41.585 57.55 41.585 57.55H40.645C40.345 57.55 40.035 57.25 40.035 56.96V53.66C40.035 53.34 40.355 53.04 40.645 53.04Z" fill="#0B5ED7"/>
<path d="M41.905 18.47V6.45999H22.095V18.47H31.055V26H22.095V27.8H28.275V35.31H23.325C22.705 35.31 22.095 35.92 22.095 36.84V51.85H24.265C24.565 51.85 24.885 52.15 24.885 52.47V55.18C24.885 55.48 25.205 55.77 25.505 55.77H38.495C38.815 55.77 39.105 55.47 39.105 55.18V52.47C39.105 52.15 39.425 51.85 39.745 51.85H41.915V36.84C41.915 35.93 41.305 35.31 40.365 35.31H35.715V27.8H41.915V26H32.935V18.47H41.915H41.905Z" fill="#0B5ED7"/>
<path d="M23.645 16.38V8.86998C23.645 8.54998 23.945 8.24998 24.265 8.24998H39.745C40.045 8.24998 40.045 8.54998 40.045 8.86998V16.38C40.045 16.5733 39.945 16.67 39.745 16.67H24.265C23.945 16.67 23.645 16.67 23.645 16.38Z" fill="white"/>
</g>
<defs>
<clipPath id="clip0_34_517">
<rect width="19.81" height="51.08" fill="white" transform="translate(22.095 6.45999)"/>
</clipPath>
</defs>
</svg>
