<svg width="20" height="52" viewBox="0 0 20 52" fill="none" xmlns="http://www.w3.org/2000/svg">
<g clip-path="url(#clip0_6372_17818)">
<path d="M0.3 46.5801H1.24C1.56 46.5801 1.56 46.8801 1.56 47.2001V50.5001C1.56 50.8001 1.56 51.0901 1.24 51.0901H0.3C0 51.0901 0 50.7901 0 50.5001V47.2001C0 46.8801 0 46.5801 0.3 46.5801Z" fill="#0B5ED7"/>
<path d="M18.5499 46.5801H19.4899C19.4899 46.5801 19.8099 46.8801 19.8099 47.2001V50.5001C19.8099 50.8001 19.4899 51.0901 19.4899 51.0901H18.5499C18.2499 51.0901 17.9399 50.7901 17.9399 50.5001V47.2001C17.9399 46.8801 18.2599 46.5801 18.5499 46.5801Z" fill="#0B5ED7"/>
<path d="M19.81 12.01V0H0V12.01H8.96V19.54H0V21.34H6.18V28.85H1.23C0.61 28.85 0 29.46 0 30.38V45.39H2.17C2.47 45.39 2.79 45.69 2.79 46.01V48.72C2.79 49.02 3.11 49.31 3.41 49.31H16.4C16.72 49.31 17.01 49.01 17.01 48.72V46.01C17.01 45.69 17.33 45.39 17.65 45.39H19.82V30.38C19.82 29.47 19.21 28.85 18.27 28.85H13.62V21.34H19.82V19.54H10.84V12.01H19.82H19.81Z" fill="#0B5ED7"/>
<path d="M1.5498 9.92004V2.41004C1.5498 2.09004 1.8498 1.79004 2.1698 1.79004H17.6498C17.9498 1.79004 17.9498 2.09004 17.9498 2.41004V9.92004C17.9498 10.1134 17.8498 10.21 17.6498 10.21H2.1698C1.8498 10.21 1.5498 10.21 1.5498 9.92004Z" fill="white"/>
</g>
<defs>
<clipPath id="clip0_6372_17818">
<rect width="19.81" height="51.08" fill="white"/>
</clipPath>
</defs>
</svg>
