<svg width="64" height="64" viewBox="0 0 64 64" fill="none" xmlns="http://www.w3.org/2000/svg">
<g clip-path="url(#clip0_6371_17753)">
<path d="M22.3947 53.04H23.3347C23.6547 53.04 23.6547 53.34 23.6547 53.66V56.96C23.6547 57.26 23.6547 57.55 23.3347 57.55H22.3947C22.0947 57.55 22.0947 57.25 22.0947 56.96V53.66C22.0947 53.34 22.0947 53.04 22.3947 53.04Z" fill="#0B5ED7"/>
<path d="M40.6447 53.04H41.5847C41.5847 53.04 41.9047 53.34 41.9047 53.66V56.96C41.9047 57.26 41.5847 57.55 41.5847 57.55H40.6447C40.3447 57.55 40.0347 57.25 40.0347 56.96V53.66C40.0347 53.34 40.3547 53.04 40.6447 53.04Z" fill="#0B5ED7"/>
<path d="M41.9047 18.47V6.45996H22.0947V18.47H31.0547V26H22.0947V27.8H28.2747V35.31H23.3247C22.7047 35.31 22.0947 35.92 22.0947 36.84V51.85H24.2647C24.5647 51.85 24.8847 52.15 24.8847 52.47V55.18C24.8847 55.48 25.2047 55.77 25.5047 55.77H38.4947C38.8147 55.77 39.1047 55.47 39.1047 55.18V52.47C39.1047 52.15 39.4247 51.85 39.7447 51.85H41.9147V36.84C41.9147 35.93 41.3047 35.31 40.3647 35.31H35.7147V27.8H41.9147V26H32.9347V18.47H41.9147H41.9047Z" fill="#0B5ED7"/>
<path d="M23.6445 16.38V8.87C23.6445 8.55 23.9445 8.25 24.2645 8.25H39.7445C40.0445 8.25 40.0445 8.55 40.0445 8.87V16.38C40.0445 16.5733 39.9445 16.67 39.7445 16.67H24.2645C23.9445 16.67 23.6445 16.67 23.6445 16.38Z" fill="white"/>
</g>
<defs>
<clipPath id="clip0_6371_17753">
<rect width="19.81" height="51.08" fill="white" transform="translate(22.0947 6.45996)"/>
</clipPath>
</defs>
</svg>
