<svg width="127" height="126" viewBox="0 0 127 126" fill="none" xmlns="http://www.w3.org/2000/svg">
<rect width="126.054" height="126" rx="24" fill="#0B5ED7"/>
<path d="M59.688 19.3486C64.5804 18.5628 71.1819 21.5809 72.8249 26.4246C73.7278 29.0865 73.2192 30.087 75.2234 32.3473C75.5611 33.9515 75.5178 36.605 75.1955 38.2137C74.3742 39.1138 73.973 39.3 72.8813 39.767C72.6717 40.1 71.9967 41.1861 71.7455 41.3728C69.5569 43.001 68.7752 43.0849 67.5762 45.5659C67.7686 46.2847 68.017 46.9032 68.2826 47.5941C69.8523 48.4487 71.3707 48.823 73.0386 49.5047C71.1266 49.6399 68.6839 49.5115 66.6562 49.5783C66.5371 48.5856 66.3546 47.8777 66.1157 46.91C61.9396 49.2333 60.3398 49.2965 56.1624 46.9638C55.2036 49.1735 55.7547 49.5568 57.7113 50.8409C57.4644 54.0289 57.5903 58.0944 57.6051 61.3584C57.6215 65.0135 57.4728 69.3841 57.7574 72.9722C54.7748 72.9387 42.0967 73.3637 40.4802 72.4823C39.4443 71.9173 38.4259 71.0207 38.0962 69.8477C37.3887 67.3315 40.7682 56.4387 42.224 53.8829C44.0812 50.6226 47.3307 50.0685 50.673 49.1534C51.8123 48.8415 53.4947 48.4363 54.102 47.3091C55.0766 45.5007 53.264 43.423 52.4938 41.8948C52.1757 41.264 51.9847 40.5355 51.7742 39.8619C50.27 39.7959 48.5109 39.9151 47.3843 38.7288C46.2124 37.4948 46.6066 34.2721 46.6722 32.548C47.175 31.7681 47.516 31.4991 48.1944 30.897C48.8248 23.8698 52.7612 20.2426 59.688 19.3486Z" fill="#FEFEFE"/>
<path d="M56.4934 30.5645C56.7674 30.6513 57.5294 31.1633 57.8448 31.3421C59.4796 32.2689 61.7606 33.2261 63.6399 33.3515C67.1009 33.5807 69.8676 33.2414 68.9274 37.8157C68.1336 41.6776 68.2582 42.1822 64.1597 42.5349C60.0737 39.6876 57.0411 45.1522 62.7892 44.9166C64.6319 44.2638 63.7692 44.0229 66.5378 43.6108C61.5373 50.7691 54.5507 45.14 53.2052 38.7195C52.0407 33.1625 54.2595 34.0453 56.4934 30.5645Z" fill="#0B5ED7"/>
<path d="M59.4557 21.1361C65.1743 20.2584 71.3086 23.7518 72.0481 29.752C72.1073 30.2324 71.8707 30.6497 71.5596 30.9696L71.2943 30.9488C70.5025 30.4298 70.6775 28.8479 70.3135 27.9688C69.1301 25.11 65.8992 23.1127 62.8929 22.7516L62.7424 22.7343C62.5291 22.6967 62.3142 22.669 62.0984 22.6512C59.2559 22.4087 57.3079 23.0526 55.029 24.7561C53.8417 25.6437 52.7219 26.17 51.9199 27.5357C51.4569 28.3244 51.3984 30.1961 50.8224 30.6877C50.2955 30.7782 50.4021 30.8386 49.9717 30.6531C49.9374 30.5737 49.8546 30.3491 49.8618 30.2726C50.3703 24.8243 54.457 21.9224 59.4557 21.1361Z" fill="#0B5ED7"/>
<path d="M60.6359 50.6565C61.1992 50.61 61.7705 50.5849 62.3359 50.583C70.0278 50.5543 77.7242 50.5254 85.4155 50.5884C87.5523 50.606 88.8102 51.2582 88.7771 53.6286C88.703 58.9461 88.796 64.2586 88.7826 69.5758C88.7784 71.2082 88.5109 72.1068 87.0051 72.8211C84.9046 73.1204 79.7378 72.9068 77.3196 72.9331C72.1768 72.9156 67.0312 72.9912 61.8892 72.9025C60.3454 72.8758 59.1501 72.4069 59.0438 70.6519C58.8908 68.13 58.8848 65.5136 58.9215 62.9834C58.9734 59.4081 58.7682 55.683 59.0347 52.1321C59.5416 51.3405 59.8271 51.1165 60.6359 50.6565Z" fill="#FEFEFE"/>
<path d="M60.949 51.8506C68.1106 51.4878 75.7528 52.0753 82.9521 51.8104C84.0542 51.7698 86.2851 51.7819 87.257 52.2562C87.8708 53.5409 87.4054 68.4596 87.3519 70.8723C87.3453 71.1639 86.9507 71.438 86.7006 71.6358C78.9684 71.7604 71.1867 71.5979 63.45 71.6621C62.7629 71.6678 61.0107 71.6275 60.4928 71.2304C59.6972 69.006 60.4479 62.4038 60.2271 59.6371C60.0686 57.6516 60.1837 54.934 60.2765 52.9124C60.2974 52.4563 60.5797 52.1037 60.949 51.8506Z" fill="#0B5ED7"/>
<path d="M76.0381 54.0707C76.6847 54.0095 77.4121 53.828 77.898 54.2944C77.8066 54.8841 73.8474 58.0061 78.1138 58.8088C78.5306 58.8871 79.9438 56.8401 80.6108 56.7288C82.114 58.3614 79.7913 61.3836 78.0455 61.8223C76.1286 62.3038 76.1698 61.0185 74.5908 62.871C73.6327 63.995 72.468 65.2748 71.4681 66.4175C70.4285 67.6383 68.3649 70.3752 66.6653 69.449C63.3028 67.6171 67.7776 64.3238 69.1974 62.9836C69.7919 62.4226 73.1289 59.4452 73.1154 59.1849C72.9706 56.3848 73.3741 55.2426 76.0381 54.0707Z" fill="#FEFEFE"/>
<path d="M42.228 73.8172C44.8558 73.6715 81.4372 73.5087 82.3865 73.8319C82.5887 73.9006 82.5823 73.9982 82.6688 74.1794C82.5572 74.9994 82.0205 75.4978 81.4073 75.9974C80.4592 76.1973 76.5693 76.1269 75.3852 76.126L63.3981 76.113L49.6865 76.0924C47.8355 76.0894 43.9594 76.1894 42.3191 75.9303C41.8095 75.3191 41.296 74.8311 41.251 74.0665C41.5891 73.7424 41.6475 73.8463 42.228 73.8172Z" fill="#FEFEFE"/>
<path d="M50.9332 86.3405H46.5092V92.6765H41.904V86.3405H37.48V102.284H41.904V96.0148H46.5092V102.284H50.9332V86.3405ZM66.3266 99.079V86.3405H61.9026V102.284H69.8975L70.5619 99.079H66.3191H66.3266ZM58.6261 86.3405H54.2021V102.284H58.6261V86.3405ZM76.5638 86.3405H72.1397V102.284H76.5638V86.3405ZM98.3743 90.4095C98.3743 89.5459 99.1594 89.139 100.435 89.139C101.832 89.139 103.342 89.4711 104.376 89.9362L104.014 86.465C102.859 86.1993 101.832 86 99.9521 86C96.3737 86 93.9503 87.5529 93.9503 90.7998C93.9503 96.4051 100.858 95.2674 100.858 97.8666C100.858 98.8631 100.194 99.4029 98.5555 99.4029C97.0984 99.4029 94.8562 98.8714 93.5275 98.1324L94.0107 101.803C95.3469 102.334 97.1588 102.6 98.6159 102.6C102.315 102.6 105.342 101.263 105.342 97.2604C105.342 91.9209 98.3743 92.9257 98.3743 90.3929V90.4095ZM85.8949 98.4811C90.017 98.4811 92.6216 96.1477 92.6216 92.0786C92.6216 87.611 89.8358 86.0083 85.291 86.0083C83.5319 86.0083 81.4105 86.1412 79.9006 86.3405V102.284H84.3246V98.4811H85.9025H85.8949ZM88.2579 92.1451C88.2579 94.2128 87.352 95.6162 85.0494 95.6162H84.3246V89.0227C84.5813 89.0061 84.8229 89.0061 85.0494 89.0061C87.2312 89.0061 88.2579 90.1438 88.2579 92.1368V92.1451ZM29.0019 98.4811C33.1239 98.4811 35.7285 96.1477 35.7285 92.0786C35.7209 87.611 32.9352 86.0083 28.3903 86.0083C26.6389 86.0083 24.5175 86.1412 23 86.3405V102.284H27.424V98.4811H29.0019ZM31.3649 92.1451C31.3649 94.2128 30.4589 95.6162 28.1563 95.6162H27.4316V89.0227C27.6882 89.0061 27.9298 89.0061 28.1563 89.0061C30.3381 89.0061 31.3649 90.1438 31.3649 92.1368V92.1451Z" fill="white"/>
</svg>
